<svg viewBox="0 0 547 540" fill="none" xmlns="http://www.w3.org/2000/svg">
<path d="M322.24 412.313L317.534 412.453L320.718 519.28L325.423 519.141L322.24 412.313Z" fill="#AED6F1"/>
<path d="M205.57 404.177L188.878 509.732L193.528 510.468L210.219 404.912L205.57 404.177Z" fill="#AED6F1"/>
<path d="M348.335 370.438L343.673 371.087L360.031 488.588L364.693 487.939L348.335 370.438Z" fill="#AED6F1"/>
<path d="M255.086 349.492C255.086 349.492 335.347 358.908 344.997 360.791C354.176 362.674 353.706 375.621 341.702 394.218C328.992 413.52 320.283 416.58 292.98 413.991C265.677 411.637 233.196 410.931 225.9 405.046C218.603 399.396 255.086 349.492 255.086 349.492Z" fill="#AED6F1"/>
<path d="M345.703 360.791L340.996 360.556C340.996 359.85 345.703 292.761 345.703 292.761L350.41 292.997C350.175 292.997 345.703 360.085 345.703 360.791Z" fill="#AED6F1"/>
<path d="M355.824 304.061C354.647 304.061 322.401 301.707 322.401 301.707L323.108 289.937C323.108 289.937 355.353 292.055 356.53 292.291L355.824 304.061Z" fill="#AED6F1"/>
<path d="M313.333 322.307L313.013 327.004L345.42 329.212L345.74 324.515L313.333 322.307Z" fill="#AED6F1"/>
<path d="M253.673 496.851C253.673 496.851 248.024 512.858 241.199 519.449C234.138 526.04 240.728 528.394 249.672 522.509C258.616 516.86 261.205 508.621 261.205 508.621C261.205 508.621 260.97 514.506 264.265 514.035C267.325 513.564 264.265 498.969 264.265 498.969L253.673 496.851Z" fill="#FFA7A6"/>
<path d="M303.807 499.44C303.807 499.44 303.572 519.92 298.864 523.215C294.392 526.511 288.979 529.336 293.451 530.513C297.923 531.689 306.161 532.867 310.633 525.098C315.105 517.33 316.752 505.325 316.752 505.325C316.752 505.325 320.989 500.617 322.637 499.44C324.284 498.263 315.105 492.143 310.633 492.378C306.161 492.614 303.807 499.44 303.807 499.44Z" fill="#FFA7A6"/>
<path d="M331.11 345.961C331.11 345.961 344.526 379.152 325.932 397.043C307.102 414.933 311.81 408.812 311.81 408.812C311.81 408.812 310.633 430.233 297.688 452.832C284.742 475.43 264.03 499.675 264.03 499.675L253.203 497.322C253.203 497.322 259.322 430.94 265.913 413.049C272.503 395.159 282.388 345.961 282.388 345.961H331.11Z" fill="#0859A3"/>
<path d="M227.547 348.551C227.547 348.551 199.067 381.977 204.246 408.577C209.424 435.177 303.572 502.5 303.572 502.5L311.81 492.378C311.81 492.378 256.733 421.289 254.379 406.223C252.026 390.922 274.621 381.271 279.564 367.147C281.682 361.262 285.684 345.02 285.684 345.02L227.547 348.551Z" fill="#2B7BC5"/>
<path d="M222.84 184.244C222.605 183.773 216.485 179.301 214.837 165.883C213.425 154.584 216.25 147.051 222.84 141.872C228.724 137.164 234.844 137.871 240.257 136.694C245.435 135.281 245.906 119.51 264.265 118.097C281.918 116.92 281.447 126.807 293.451 126.572C305.455 126.101 304.984 115.743 324.99 119.51C344.997 123.511 339.113 135.752 353.706 140.225C368.063 144.697 380.302 137.635 391.129 146.11C401.956 154.584 411.136 170.591 400.78 183.067C390.423 195.543 380.067 190.129 371.358 196.72C366.18 200.722 367.122 214.61 348.527 213.904C329.698 213.433 336.053 194.837 321.225 194.131C306.396 193.424 301.924 205.43 278.858 202.605C255.792 199.78 253.909 191.07 249.907 188.481C245.906 185.421 222.84 184.244 222.84 184.244Z" fill="#31658B"/>
<path d="M247.554 208.489C258.616 208.019 301.924 201.663 325.932 241.916C349.94 281.933 323.578 312.299 323.578 312.299C323.578 312.299 336.994 342.195 331.11 345.961C325.226 349.727 229.43 353.023 225.9 351.846C222.369 350.669 217.191 318.42 217.191 318.42C217.191 318.42 196.478 295.586 196.478 272.753C196.243 249.919 208.012 209.902 247.554 208.489Z" fill="#30A8FF"/>
<path d="M429.259 394.453L411.607 335.604L409.959 348.08C409.959 348.08 406.429 342.901 408.076 334.192C408.076 334.192 405.016 312.064 400.309 307.357C400.309 307.357 397.249 315.831 396.778 317.479C396.308 319.126 397.955 312.3 395.131 304.061C395.131 304.061 378.89 279.58 367.828 284.288C356.765 288.996 366.416 315.595 366.416 315.595C366.416 315.595 381.479 323.128 380.538 325.482C379.596 327.601 368.769 321.716 368.769 321.716C368.769 321.716 379.596 340.312 387.834 347.374C387.834 347.374 399.838 350.905 401.015 355.142C402.192 359.379 389.717 350.905 389.717 350.905C389.717 350.905 393.012 367.853 399.603 376.328C399.603 376.328 415.137 377.269 411.136 378.446C407.135 379.623 401.956 379.623 401.956 379.623C401.956 379.623 412.784 390.216 419.374 396.101C425.964 401.751 429.259 394.453 429.259 394.453Z" fill="#D7ECFF"/>
<path d="M442.205 392.805C442.205 392.805 457.033 347.845 464.094 344.314C464.094 344.314 463.153 350.199 465.506 350.199C467.625 349.963 466.448 341.018 466.448 341.018C466.448 341.018 477.275 325.953 486.454 323.599C486.454 323.599 483.159 331.838 485.513 331.367C487.867 330.896 488.808 322.186 488.808 322.186C488.808 322.186 505.284 312.3 515.64 316.772C525.996 321.245 517.052 338.664 517.052 338.664C517.052 338.664 508.814 337.723 506.696 338.664C504.578 339.606 512.11 342.666 515.405 341.489C515.405 341.489 509.285 351.611 498.929 353.259C498.929 353.259 490.926 351.846 485.748 353.023C480.57 354.2 497.281 355.142 497.281 355.142C497.281 355.142 486.454 362.91 474.215 364.558C474.215 364.558 460.328 361.027 463.623 363.145C466.919 365.264 471.861 366.441 471.626 366.676C471.155 366.912 461.74 372.09 457.268 379.623C452.796 387.156 446.677 392.099 446.677 392.099L442.205 392.805Z" fill="#D7ECFF"/>
<path d="M261.911 215.316C257.439 209.902 252.732 202.605 250.614 197.897C255.792 192.954 258.381 184.008 256.262 174.357C253.438 161.41 243.552 152.701 234.138 154.819C224.723 156.938 219.309 168.943 222.134 181.654C224.487 192.718 232.019 200.722 240.257 201.428C241.434 206.607 243.317 215.787 243.082 220.73C242.611 228.028 248.024 231.088 254.615 230.382C260.734 229.911 268.031 222.378 261.911 215.316Z" fill="#FFA7A6"/>
<path d="M424.552 395.159C416.549 377.034 414.196 345.02 414.196 332.779C414.196 332.779 420.551 342.666 422.904 342.666C425.258 342.666 416.785 323.363 414.902 322.422C413.019 321.48 416.549 288.76 426.2 275.342C426.2 275.342 430.907 295.587 434.438 290.172C437.968 284.758 430.436 269.458 430.436 269.458C430.436 269.458 436.085 245.918 457.504 244.741C478.923 243.564 468.802 277.226 468.802 277.226C468.802 277.226 455.15 287.818 454.915 289.702C454.444 291.585 466.683 283.817 466.683 283.817C466.683 283.817 467.154 302.884 462.917 309.475C462.917 309.475 447.148 316.772 444.558 323.834C444.558 323.834 451.62 320.303 458.681 321.716C458.681 321.716 460.093 341.254 456.562 347.374C456.562 347.374 447.383 347.609 441.499 351.611C434.438 356.554 437.733 357.26 437.733 357.26C437.733 357.26 449.501 356.083 455.621 351.14C455.621 351.14 453.503 378.446 444.794 392.57C435.85 406.458 424.552 395.159 424.552 395.159Z" fill="#88C0FF"/>
<path d="M250.614 197.897C255.792 192.954 258.381 184.008 256.262 174.357C253.438 161.41 243.552 152.701 234.138 154.819C229.901 155.761 226.606 158.586 224.487 162.587C224.487 162.587 231.313 155.996 240.963 159.292C246.848 161.41 252.732 171.297 253.203 177.417C253.673 183.773 251.32 193.895 247.083 197.426C242.846 200.957 242.846 200.957 242.846 200.957C242.846 200.957 247.554 197.661 252.026 203.782C256.498 210.137 261.676 222.378 258.851 227.086C257.91 228.498 256.969 229.44 255.792 230.146C261.676 228.734 267.325 221.907 261.676 215.316C257.439 209.902 252.732 202.605 250.614 197.897Z" fill="#FF6969"/>
<path d="M224.723 188.01C220.486 188.01 216.956 185.186 216.956 181.89C216.956 178.359 220.486 175.77 224.723 175.77C228.959 175.77 232.49 178.595 232.49 181.89C232.725 185.186 229.195 188.01 224.723 188.01ZM224.723 176.711C220.957 176.711 218.132 179.065 218.132 181.655C218.132 184.479 221.192 186.598 224.723 186.598C228.489 186.598 231.313 184.244 231.313 181.655C231.549 179.065 228.489 176.711 224.723 176.711Z" fill="white"/>
<path d="M245.435 186.127C241.199 186.127 237.668 183.302 237.668 180.007C237.668 176.476 241.199 173.886 245.435 173.886C249.672 173.886 253.203 176.711 253.203 180.007C253.438 183.302 249.907 186.127 245.435 186.127ZM245.435 175.063C241.669 175.063 238.845 177.417 238.845 180.007C238.845 182.596 241.905 184.95 245.435 184.95C249.201 184.95 252.026 182.596 252.026 180.007C252.026 177.417 249.201 175.063 245.435 175.063Z" fill="white"/>
<path opacity="0.3" d="M232.019 181.89C232.019 184.95 228.724 187.54 224.723 187.54C220.722 187.54 217.426 184.95 217.426 181.89C217.426 178.83 220.722 176.24 224.723 176.24C228.724 176.24 232.019 178.594 232.019 181.89Z" fill="white"/>
<path opacity="0.3" d="M245.435 185.656C249.465 185.656 252.732 183.127 252.732 180.007C252.732 176.887 249.465 174.357 245.435 174.357C241.406 174.357 238.139 176.887 238.139 180.007C238.139 183.127 241.406 185.656 245.435 185.656Z" fill="white"/>
<path d="M232.49 182.125L231.784 181.184C232.019 181.184 235.079 178.83 238.61 180.242L238.139 181.419C235.079 180.242 232.49 182.125 232.49 182.125Z" fill="white"/>
<g opacity="0.5">
<g opacity="0.5">
<path opacity="0.5" d="M442.676 393.041L441.734 392.57C466.683 342.901 518.465 319.362 518.935 319.126L519.406 320.303C518.935 320.539 467.389 343.607 442.676 393.041Z" fill="white"/>
</g>
<g opacity="0.5">
<path opacity="0.5" d="M498.457 317.717L495.175 333.383L496.326 333.624L499.609 317.958L498.457 317.717Z" fill="white"/>
</g>
<g opacity="0.5">
<path opacity="0.5" d="M509.521 348.786C498.223 344.078 479.864 346.197 479.864 346.432L479.629 345.255C480.335 345.255 498.458 342.901 509.991 347.844L509.521 348.786Z" fill="white"/>
</g>
<g opacity="0.5">
<path opacity="0.5" d="M475.122 330.615L472.321 351.852L473.488 352.006L476.289 330.769L475.122 330.615Z" fill="white"/>
</g>
<g opacity="0.5">
<path opacity="0.5" d="M485.042 362.204C485.042 362.204 476.098 357.966 466.213 359.143L465.977 357.966C476.098 356.789 485.042 360.791 485.278 361.027L485.042 362.204Z" fill="white"/>
</g>
</g>
<g opacity="0.5">
<g opacity="0.5">
<path opacity="0.5" d="M432.79 390.451C430.201 343.607 438.203 306.65 445.029 283.581C452.561 258.865 460.799 244.976 461.034 244.741L461.976 245.447C461.74 245.918 429.259 301.236 433.967 390.451H432.79Z" fill="white"/>
</g>
<g opacity="0.5">
<path opacity="0.5" d="M418.407 295.705L417.371 296.264L435.248 329.416L436.284 328.857L418.407 295.705Z" fill="white"/>
</g>
<g opacity="0.5">
<path opacity="0.5" d="M434.438 346.197L433.731 345.255C434.202 344.784 445.971 333.956 458.681 332.544V333.721C446.441 335.133 434.438 346.197 434.438 346.197Z" fill="white"/>
</g>
<g opacity="0.5">
<path opacity="0.5" d="M446.677 278.873C445.735 273.93 437.968 254.863 437.968 254.627L439.145 254.156C439.38 254.863 446.912 273.694 448.089 278.638L446.677 278.873Z" fill="white"/>
</g>
<g opacity="0.5">
<path opacity="0.5" d="M465.954 295.381L439.659 305.691L440.088 306.787L466.384 296.476L465.954 295.381Z" fill="white"/>
</g>
<g opacity="0.5">
<path opacity="0.5" d="M432.319 372.561C429.495 366.912 415.843 358.908 415.608 358.908L416.079 357.967C416.549 358.202 430.201 366.205 433.261 372.09L432.319 372.561Z" fill="white"/>
</g>
</g>
<g opacity="0.5">
<g opacity="0.5">
<path opacity="0.5" d="M420.08 390.451C415.373 366.441 401.25 338.899 390.188 320.068C378.419 299.588 367.357 284.758 367.357 284.523L368.299 283.817C368.769 284.523 411.842 343.843 421.021 390.216L420.08 390.451Z" fill="white"/>
</g>
<g opacity="0.5">
<path opacity="0.5" d="M386.42 296.102L385.839 312.57L387.016 312.611L387.596 296.143L386.42 296.102Z" fill="white"/>
</g>
<g opacity="0.5">
<path opacity="0.5" d="M399.132 336.31C395.131 332.308 376.537 333.956 376.537 333.956V332.779C377.243 332.779 395.837 331.132 400.074 335.369L399.132 336.31Z" fill="white"/>
</g>
<g opacity="0.5">
<path opacity="0.5" d="M412.783 365.97C407.37 363.145 393.954 365.028 393.719 365.028L393.483 363.851C393.954 363.851 407.37 361.968 413.254 364.793L412.783 365.97Z" fill="white"/>
</g>
</g>
<path d="M461.74 390.216H405.252V507.208H461.74V390.216Z" fill="#31658B"/>
<path d="M249.672 522.744C258.616 517.095 261.205 508.856 261.205 508.856C261.205 508.856 260.97 514.741 264.265 514.27C266.148 514.035 265.677 508.856 265.206 504.619C262.853 506.502 258.851 509.562 254.615 510.268C251.79 510.974 249.672 510.739 248.024 510.268C246.141 513.799 243.788 517.095 241.434 519.449C234.138 526.275 240.728 528.394 249.672 522.744Z" fill="#313C8B"/>
<path d="M107.273 338.899H85.6191C80.9117 338.899 77.1458 335.133 77.1458 330.425V327.365C77.1458 322.657 80.9117 318.891 85.6191 318.891H107.273C111.981 318.891 115.746 322.657 115.746 327.365V330.425C115.746 335.133 111.745 338.899 107.273 338.899Z" fill="#88C0FF"/>
<path d="M316.046 493.791C315.811 495.438 315.576 497.792 314.869 500.617C313.222 506.502 309.221 515.682 306.161 518.978C304.984 520.155 303.101 519.684 301.689 518.743C300.983 520.861 300.277 522.509 299.1 523.451C294.628 526.746 289.214 529.571 293.686 530.748C298.158 531.925 306.396 533.102 310.868 525.334C315.34 517.566 316.988 505.56 316.988 505.56C316.988 505.56 321.224 500.852 322.872 499.675C324.049 498.734 320.283 495.438 316.046 493.791Z" fill="#313C8B"/>
<path d="M224.958 323.363C214.602 305.473 222.84 267.81 223.075 266.162L224.252 266.397C224.017 268.045 215.779 305.473 225.9 322.892L224.958 323.363Z" fill="#73D5FF"/>
<path d="M299.335 329.013H64.2004V340.783H299.335V329.013Z" fill="#AED6F1"/>
<path d="M276.975 537.574L218.603 349.728H133.87C120.454 403.163 88.4435 531.454 87.5021 537.104L78.3226 535.691C79.4995 528.629 123.984 351.846 125.867 344.314L126.809 340.783H225.664L286.154 535.22L276.975 537.574Z" fill="#D7ECFF"/>
<path d="M146.815 329.013C146.58 329.013 131.046 272.047 131.046 272.047H207.07L222.369 329.013H146.815Z" fill="#D7ECFF"/>
<path d="M257.675 329.013H181.885V323.128H254.379L257.675 329.013Z" fill="#D7ECFF"/>
<path d="M250.378 314.418C250.378 314.418 235.55 313.947 230.607 318.42C225.429 322.893 226.841 323.363 226.841 323.363H254.85L250.378 314.418Z" fill="#FFA7A6"/>
<path d="M257.439 327.365C256.498 327.365 256.027 327.365 256.027 327.365H255.556L248.966 313.712L249.672 313.477C249.907 313.477 273.209 307.121 280.976 293.468C288.508 279.815 286.861 260.277 286.861 260.042H288.037C288.037 260.277 289.92 280.05 282.153 294.174C274.857 307.121 254.85 313.477 250.849 314.654L256.498 326.423C259.793 326.423 283.33 326.423 297.452 322.892C311.574 319.361 323.108 312.064 323.343 311.829L324.049 312.77C323.814 312.77 312.045 320.303 297.923 323.834C284.507 327.13 263.088 327.365 257.439 327.365Z" fill="#C7E4FF"/>
<path d="M98.7998 323.128H94.0924L96.6815 231.559L168.469 211.314L169.646 216.022L101.154 235.325L98.7998 323.128Z" fill="#88C0FF"/>
<path d="M151.758 200.486L163.762 238.621L190.829 225.203L170.117 192.718C170.117 192.483 159.055 190.6 151.758 200.486Z" fill="#88C0FF"/>
<path d="M385.805 20.1875C385.805 20.1875 377.446 91.4928 378.029 102.568L410.88 107.813C410.88 107.813 423.126 51.8572 437.899 32.2336C437.899 32.0393 391.636 18.2446 385.805 20.1875Z" fill="#D7ECFF"/>
<path d="M391.791 36.3944L391.416 38.3008L418.5 43.6228L418.874 41.7164L391.791 36.3944Z" fill="#88C0FF"/>
<path d="M389.535 48.9138L389.197 50.8271L415.423 55.456L415.761 53.5426L389.535 48.9138Z" fill="#88C0FF"/>
<path d="M389.601 60.5941L389.256 62.5063L410.683 66.3624L411.028 64.4501L389.601 60.5941Z" fill="#88C0FF"/>
<path d="M387.785 72.1798L387.428 74.0898L407.685 77.8649L408.041 75.9548L387.785 72.1798Z" fill="#88C0FF"/>
<path d="M386.395 85.5635L386.088 87.4819L404.13 90.3676L404.437 88.4491L386.395 85.5635Z" fill="#88C0FF"/>
<rect x="446" y="118" width="50" height="43" fill="#D7ECFF"/>
<rect x="452" y="140" width="13" height="9" fill="#88C0FF"/>
<rect x="477" y="124" width="13" height="9" fill="#88C0FF"/>
<path d="M296.323 64.9427L278.464 50.3645L285.108 42.2259L294.831 50.1867L318.022 21.7475L326.16 28.391L296.323 64.9427Z" fill="#88C0FF"/>
<path d="M124.5 157C140.24 157 153 144.24 153 128.5C153 112.76 140.24 100 124.5 100C108.76 100 96 112.76 96 128.5C96 144.24 108.76 157 124.5 157Z" fill="#88C0FF"/>
<path d="M124.5 152.883C137.967 152.883 148.883 141.967 148.883 128.5C148.883 115.033 137.967 104.117 124.5 104.117C111.033 104.117 100.117 115.033 100.117 128.5C100.117 141.967 111.033 152.883 124.5 152.883Z" fill="#D7ECFF"/>
<path d="M124.5 108.233H122.758V128.5H124.5V108.233Z" fill="#88C0FF"/>
<path d="M123.728 129.971L138.674 121.342L137.645 119.56L122.699 128.189L123.728 129.971Z" fill="#88C0FF"/>
<g clip-path="url(#clip0)">
<path d="M216.077 50.5637C219.714 58.3591 216.277 67.7593 208.457 71.4076C200.637 75.0559 191.225 71.6494 187.589 63.854C183.952 56.0586 187.389 46.6584 195.209 43.0101C203.03 39.3618 212.311 42.4899 216.077 50.5637Z" fill="#88C0FF"/>
<path d="M215.491 71.1766L203.481 76.7793C202.085 77.4308 200.169 76.9687 199.389 75.2982L199 74.463C198.35 73.071 198.818 71.1578 200.494 70.376L212.504 64.7732C213.9 64.1217 215.816 64.5839 216.596 66.2543L216.985 67.0895C217.635 68.4816 216.888 70.5251 215.491 71.1766Z" fill="#88C0FF"/>
<path d="M219.005 73.6054L203.085 81.0323C202.805 81.1626 202.117 81.1448 201.857 80.588L201.727 80.3096C201.597 80.0312 201.617 79.3441 202.176 79.0835L218.096 71.6565C218.375 71.5263 219.063 71.5441 219.323 72.1009L219.453 72.3793C219.583 72.6577 219.563 73.3448 219.005 73.6054Z" fill="#88C0FF"/>
<path d="M220.563 76.9462L204.643 84.3731C204.364 84.5034 203.675 84.4856 203.416 83.9288L203.286 83.6504C203.156 83.372 203.175 82.6849 203.734 82.4243L219.654 74.9974C219.933 74.8671 220.622 74.8849 220.882 75.4417L221.012 75.7201C221.271 76.2769 221.122 76.6856 220.563 76.9462Z" fill="#88C0FF"/>
<path d="M221.992 80.009L206.072 87.4359C205.793 87.5662 205.104 87.5484 204.844 86.9916L204.715 86.7131C204.585 86.4347 204.604 85.7476 205.163 85.487L221.083 78.0601C221.362 77.9298 222.051 77.9476 222.31 78.5044L222.44 78.7828C222.7 79.3397 222.551 79.7484 221.992 80.009Z" fill="#88C0FF"/>
<path d="M219.9 85.7311L211.801 89.5097C211.242 89.7703 210.424 89.4741 210.164 88.9173L209.904 88.3605C209.644 87.8036 209.943 86.9862 210.502 86.7256L218.322 83.0773C218.881 82.8167 219.699 83.113 219.959 83.6698L220.219 84.2266C220.758 84.6531 220.459 85.4705 219.9 85.7311Z" fill="#88C0FF"/>
<path d="M207.112 75.0857L205.586 75.4588L206.274 75.4766L205.716 75.7372C205.326 74.902 201.819 67.385 198.494 63.1733C196.149 63.2501 194.383 62.3793 193.584 61.396C193.064 60.2823 193.233 59.1865 194.351 58.6653C194.63 58.535 195.188 58.2744 196.007 58.5707C196.825 58.8669 198.033 59.9983 198.962 61.26C199.93 61.1476 201.047 60.6264 202.723 59.8446C203.84 59.3234 204.827 58.5238 205.386 58.2632C204.886 56.4625 204.516 54.9402 204.815 54.1227C205.523 53.4534 205.672 53.0447 205.951 52.9144C207.069 52.3933 208.575 52.7073 209.095 53.8209C209.614 54.9345 209.296 56.4391 207.451 58.3167C208.601 61.5094 210.659 66.651 213.406 71.8105L212.01 72.462C211.23 70.7915 207.834 64.2401 206.185 59.2465C205.347 59.6374 204.639 60.3067 203.522 60.8279C202.404 61.3491 201.287 61.8703 200.04 62.1131C203.755 67.16 207.262 74.677 207.112 75.0857ZM195.149 59.6487C195 60.0574 194.721 60.1877 194.851 60.4661C195.11 61.0229 195.929 61.3191 197.306 61.3547C196.637 60.6498 195.968 59.9449 195.149 59.6487C195.149 59.6487 195.429 59.5184 195.149 59.6487ZM206.601 54.3065C206.451 54.7152 206.432 55.4023 206.802 56.9246C207.659 55.8466 207.958 55.0292 207.828 54.7508C207.568 54.194 207.159 54.0459 206.601 54.3065Z" fill="#EAF0FF"/>
<path d="M181.971 62.7458L181.821 63.1545C181.522 63.9719 180.814 64.6412 179.996 64.345L172.741 62.6445C171.923 62.3483 171.254 61.6434 171.553 60.8259L171.702 60.4172C172.001 59.5998 172.709 58.9305 173.527 59.2268L180.782 60.9272C181.471 60.945 182.14 61.6499 181.971 62.7458Z" fill="#88C0FF"/>
<path d="M218 45.9375L218.409 46.0856C219.228 46.3819 220.196 46.2694 220.494 45.452L223.853 38.8002C224.152 37.9828 224.041 37.0173 223.223 36.7211L222.814 36.573C221.996 36.2768 221.028 36.3892 220.729 37.2066L217.37 43.8584C216.942 44.3974 217.052 45.3629 218 45.9375Z" fill="#88C0FF"/>
<path d="M201.971 37.8215L202.659 37.8393C203.348 37.8571 204.186 37.4662 204.355 36.3704L204.979 28.9603C204.998 28.2732 204.609 27.438 203.511 27.2721L202.823 27.2543C202.134 27.2365 201.296 27.6273 201.127 28.7232L200.503 36.1333C200.334 37.2291 201.003 37.934 201.971 37.8215Z" fill="#88C0FF"/>
<path d="M186.889 44.8575L186.46 45.3965C186.161 46.2139 185.193 46.3264 184.245 45.7518L178.166 41.4688C177.627 41.0423 177.517 40.0768 177.945 39.5378L178.374 38.9988C178.673 38.1814 179.641 38.0689 180.18 38.4954L186.538 42.6481C187.207 43.353 187.318 44.3185 186.889 44.8575Z" fill="#88C0FF"/>
</g>
<defs>
<clipPath id="clip0">
<rect width="57.6329" height="60.2135" fill="white" transform="translate(164 45.3655) rotate(-25.0096)"/>
</clipPath>
</defs>
</svg>
